<?xml version="1.0" encoding="UTF-8"?>
<!DOCTYPE svg PUBLIC "-//W3C//DTD SVG 1.1//EN" "http://www.w3.org/Graphics/SVG/1.1/DTD/svg11.dtd">
<!-- Creator: CorelDRAW X7 -->
<svg xmlns="http://www.w3.org/2000/svg" xml:space="preserve" width="54px" height="325px" version="1.1" style="shape-rendering:geometricPrecision; text-rendering:geometricPrecision; image-rendering:optimizeQuality; fill-rule:evenodd; clip-rule:evenodd"
viewBox="0 0 5400 32500"
 xmlns:xlink="http://www.w3.org/1999/xlink">
 <defs>
  <style type="text/css">
   <![CDATA[
    .str4 {stroke:black;stroke-width:200}
    .str2 {stroke:#55974D;stroke-width:500}
    .str0 {stroke:#CCCCCC;stroke-width:7.62}
    .str3 {stroke:#55974D;stroke-width:400;stroke-linecap:round;stroke-linejoin:round}
    .str1 {stroke:black;stroke-width:800;stroke-linecap:round;stroke-linejoin:round}
    .str5 {stroke:#55974D;stroke-width:150;stroke-linecap:round;stroke-linejoin:round}
    .fil5 {fill:none}
    .fil2 {fill:black}
    .fil1 {fill:#55974D}
    .fil3 {fill:white}
    .fil0 {fill:black}
    .fil4 {fill:#55974D;fill-rule:nonzero}
   ]]>
  </style>
 </defs>
 <g id="Образец">
  <metadata id="CorelCorpID_0Corel-Layer"/>
  <g id="_623597680">
   <path class="fil0" d="M1112 26422l0 -3421c0,-96 63,-170 159,-170l2500 0c67,0 137,68 137,159l0 3443c0,91 -70,159 -137,159l-2500 0c-96,0 -159,-74 -159,-170zm-318 -3523l0 3625c0,181 233,398 409,398l2603 0c212,0 431,-230 431,-443l0 -3534c0,-138 -83,-251 -156,-322 -74,-71 -202,-133 -344,-133l-2454 0c-138,0 -244,55 -325,118 -66,51 -164,183 -164,291z"/>
   <path class="fil0" d="M1431 22081c0,73 34,120 79,148 70,44 567,22 671,22 306,0 613,0 920,0 245,0 705,-26 896,25 225,61 402,233 463,469 35,137 16,1561 16,1825 0,129 -20,1510 15,1598 74,186 326,104 326,-42l0 -3250c0,-196 -86,-388 -182,-534 -39,-59 -61,-78 -111,-128 -180,-180 -398,-292 -673,-292l-2273 0c-76,0 -147,81 -147,159z"/>
   <path class="fil1" d="M1431 24467c0,74 11,148 136,148l1886 0c204,0 176,-239 23,-239l-1932 0c-61,0 -113,57 -113,91z"/>
   <path class="fil1" d="M1431 24899c0,76 9,148 136,148l1909 0c150,0 184,-239 -23,-239l-1886 0c-58,0 -136,41 -136,91z"/>
   <path class="fil1" d="M1431 24013c0,58 3,147 102,147l1954 0c155,0 128,-227 23,-227l-1977 0c-45,0 -102,44 -102,80z"/>
   <path class="fil1" d="M1431 25365c0,61 15,125 102,125l1977 0c105,0 132,-227 -23,-227l-1931 0c-71,0 -125,32 -125,102z"/>
   <path class="fil1" d="M1431 23581c0,60 15,125 102,125l1977 0c97,0 151,-227 -45,-227l-1921 0c-57,0 -113,41 -113,102z"/>
   <path class="fil1" d="M1431 25797c0,64 5,148 113,148l1921 0c195,0 143,-228 45,-228l-1977 0c-45,0 -102,44 -102,80z"/>
  </g>
  <g id="_623960720">
   <path class="fil2" d="M618 20760l0 -3057c0,-210 165,-186 313,-186l0 3145c0,168 295,197 312,0l0 -3555c0,-207 -28,-371 186,-371l3378 0c123,0 186,63 186,186l0 3838c0,221 -131,351 -352,351l-3671 0c-221,0 -352,-130 -352,-351zm313 -3907l0 352c-144,0 -242,-15 -365,45 -144,70 -260,232 -260,385l0 3203c0,295 291,586 585,586l3829 0c294,0 585,-291 585,-586l0 -3985c0,-152 -116,-314 -260,-384 -41,-20 -112,-45 -169,-45l-3516 0c-57,0 -128,25 -169,45 -144,70 -260,232 -260,384z"/>
   <path class="fil1" d="M1868 17361l781 0 0 781 -781 0 0 -781zm-312 -176l0 1133c0,65 72,137 136,137l1133 0c65,0 137,-72 137,-137l0 -1133c0,-61 -76,-136 -137,-136l-1133 0c-61,0 -136,75 -136,136z"/>
   <path class="fil1" d="M1556 19314c0,51 33,78 58,78l3008 0c73,0 91,-156 -20,-156l-2968 0c-48,0 -78,31 -78,78z"/>
   <path class="fil1" d="M1556 18846c0,51 33,78 58,78l3008 0c73,0 91,-157 -20,-157l-2968 0c-48,0 -78,31 -78,79z"/>
   <path class="fil1" d="M3274 18377c0,51 34,78 59,78l1289 0c73,0 91,-156 -20,-156l-1250 0c-47,0 -78,31 -78,78z"/>
   <path class="fil1" d="M3274 19783c0,51 34,78 59,78l1289 0c73,0 91,-156 -20,-156l-1250 0c-47,0 -78,31 -78,78z"/>
   <path class="fil1" d="M1556 19783c0,51 33,78 58,78l1289 0c73,0 91,-156 -19,-156l-1250 0c-48,0 -78,31 -78,78z"/>
   <path class="fil1" d="M3274 20252c0,51 34,78 59,78l1289 0c73,0 91,-156 -20,-156l-1250 0c-47,0 -78,31 -78,78z"/>
   <path class="fil1" d="M3274 17908c0,51 34,78 59,78l1289 0c73,0 91,-156 -20,-156l-1250 0c-47,0 -78,31 -78,78z"/>
   <path class="fil1" d="M3274 17439c0,51 34,78 59,78l1289 0c73,0 91,-156 -20,-156l-1250 0c-47,0 -78,31 -78,78z"/>
   <path class="fil1" d="M3274 20721c0,50 34,78 59,78l1289 0c73,0 91,-157 -20,-157l-1250 0c-47,0 -78,31 -78,79z"/>
   <path class="fil1" d="M1556 20252c0,51 33,78 58,78l1289 0c73,0 91,-156 -19,-156l-1250 0c-48,0 -78,31 -78,78z"/>
   <path class="fil1" d="M1556 20721c0,50 33,78 58,78l1289 0c73,0 91,-157 -19,-157l-1250 0c-48,0 -78,31 -78,79z"/>
  </g>
  <path class="fil3 str0" d="M2639 29556c622,0 541,-78 541,667 348,0 335,-26 625,41 25,52 42,65 54,145 9,59 10,389 -54,522 -290,67 -277,41 -625,41 0,745 81,667 -541,667 -270,0 -149,-363 -162,-502 -22,-236 -110,-165 -588,-165 -146,-217 -125,-13 -125,-541 0,-100 68,-123 125,-208 117,0 270,10 380,5 365,-16 153,-263 188,-501 13,-87 81,-171 182,-171zm-2416 542c0,410 338,374 542,374l0 1333c0,336 132,625 458,625l3207 0c209,0 416,-207 416,-417l0 -1541c552,0 542,-106 542,-499 0,-133 -715,-774 -907,-968 -127,-129 -177,-222 -311,-355 -1427,-1411 -1231,-1569 -2062,-625l-1313 1312c-133,132 -178,224 -311,355 -114,112 -261,201 -261,406z"/>
 </g>
 <g id="MyIco">
  <metadata id="CorelCorpID_1Corel-Layer"/>
  <g id="Map">
   <g>
    <path class="fil4" d="M3604 957c4,-27 28,-47 56,-44 27,4 47,28 44,56l-100 -12zm-222 1869l222 -1869 100 12 -223 1869 -56 44 -43 -56zm99 12c-3,28 -28,47 -55,44 -28,-3 -47,-28 -44,-56l99 12zm1408 227l-1464 -183 13 -99 1463 183 -12 99zm12 -99c28,4 47,29 44,56 -4,27 -29,47 -56,43l12 -99zm-1200 1465c4,28 -15,53 -43,57 -27,3 -52,-16 -56,-43l99 -14zm-220 -1596l220 1596 -99 14 -220 -1596 40 -56 59 42zm-99 14c-4,-27 15,-53 43,-56 27,-4 52,15 56,42l-99 14zm-1321 207l1361 -263 19 98 -1361 263 -59 -45 40 -53zm19 98c-27,6 -53,-12 -59,-39 -5,-27 13,-54 40,-59l19 98zm-39 -1239l79 1187 -99 7 -80 -1188 100 -6zm-100 6c-2,-27 19,-51 47,-53 27,-2 51,19 53,47l-100 6zm-2 2898c-3,27 -27,47 -55,44 -27,-3 -47,-27 -44,-55l99 11zm181 -1709l-181 1709 -99 -11 181 -1708 56 -44 43 54zm-99 -10c3,-28 27,-47 55,-45 27,3 47,28 44,55l-99 -10zm-1381 -236l1437 192 -13 99 -1438 -192 14 -99zm-14 99c-27,-4 -46,-29 -43,-56 4,-27 29,-47 57,-43l-14 99z"/>
    <path id="1" class="fil1" d="M5212 1449l-216 1568 226 1696c7,55 -32,105 -86,112 -11,1 -22,1 -32,-1l0 0 -1452 -284 -1742 371c-16,4 -33,3 -48,-1l-1460 -328c-52,-12 -85,-62 -77,-113l210 -1572 -217 -1761c-7,-55 32,-104 87,-111 22,-3 43,2 61,12l885 407c3,1 5,2 8,3l0 0 632 356 1613 -926c26,-15 55,-17 80,-9l0 0 1460 472c47,15 75,62 68,109l0 0zm-99 -14l-218 1581 228 1710 -1472 -288 -1762 376 -1465 -330 211 -1587 -218 -1773 893 410 681 384 1663 -955 1459 472z"/>
   </g>
   <g id="отметка">
    <path class="fil2" d="M2078 27c512,0 927,415 927,927 0,512 -415,927 -927,927 -512,0 -927,-415 -927,-927 0,-512 415,-927 927,-927zm-11 352c313,0 568,252 568,564 0,312 -255,564 -568,564 -314,0 -568,-252 -568,-564 0,-312 254,-564 568,-564z"/>
    <path class="fil2" d="M1235 1343c576,240 1135,210 1685,0l-877 1623 -808 -1623z"/>
   </g>
  </g>
  <g id="Search">
   <line class="fil5 str1" x1="4349" y1="15378" x2="3324" y2= "13862" />
   <ellipse class="fil5 str2" cx="2186" cy="12222" rx="1158" ry="1163"/>
  </g>
  <g>
   <polygon class="fil2" points="2495,6169 2495,6169 2690,6364 2690,7730 2300,7730 2300,6364 "/>
   <path class="fil5 str3" d="M4293 8973c-386,672 -1099,1085 -1871,1085 -1194,0 -2161,-972 -2161,-2171 0,-1199 967,-2171 2161,-2171 1048,0 1946,757 2128,1794"/>
   <ellipse class="fil5 str4" cx="2484" cy="7958" rx="258" ry="257"/>
   <polygon class="fil1 str5" points="3966,7296 5024,7297 4504,8091 "/>
   <polygon class="fil2" points="2756,7895 3551,8320 3633,8590 3633,8590 3363,8672 2567,8248 "/>
  </g>
 </g>
</svg>
