<?xml version="1.0" encoding="UTF-8"?>
<!DOCTYPE svg PUBLIC "-//W3C//DTD SVG 1.1//EN" "http://www.w3.org/Graphics/SVG/1.1/DTD/svg11.dtd">
<!-- Creator: CorelDRAW X7 -->
<svg xmlns="http://www.w3.org/2000/svg" xml:space="preserve" width="54px" height="312px" version="1.1" style="shape-rendering:geometricPrecision; text-rendering:geometricPrecision; image-rendering:optimizeQuality; fill-rule:evenodd; clip-rule:evenodd"
viewBox="0 0 54 312"
 xmlns:xlink="http://www.w3.org/1999/xlink">
 <defs>
  <style type="text/css">
   <![CDATA[
    .str0 {stroke:#CCCCCC;stroke-width:0.0762}
    .fil6 {fill:black}
    .fil5 {fill:black}
    .fil1 {fill:#020202}
    .fil2 {fill:#59F490}
    .fil0 {fill:#5AF291}
    .fil3 {fill:#FCFCFC}
    .fil7 {fill:white}
    .fil4 {fill:black}
   ]]>
  </style>
 </defs>
 <g id="Слой_x0020_1">
  <metadata id="CorelCorpID_0Corel-Layer"/>
  <g id="_775077104">
   <path class="fil0" d="M22 33l12 -2c0,0 0,0 0,1 1,3 1,11 2,13l-16 3c1,-5 1,-11 2,-15zm-15 -1c3,-1 9,1 13,1 0,2 -1,10 -1,13 -1,2 0,2 -7,1 -10,-2 -5,1 -5,-15zm29 -1l12 2 2 15 -13 -3 -1 -14zm1 -19c4,1 9,4 13,5l-1 13c-2,1 -12,-1 -13,-1l1 -17zm-15 21c-1,-1 -2,-3 -3,-4l1 2c-2,0 -10,-1 -12,-1 -1,-3 -1,-6 -1,-8 0,-1 -1,-2 -1,-4 0,0 0,-2 0,-3 2,0 6,3 8,3 -1,-3 -2,-3 -5,-4 -1,0 -4,-2 -5,-2 0,3 0,6 1,9 0,2 1,6 1,8 -1,5 -2,15 -2,18 3,1 8,1 12,2 2,1 4,1 6,1 13,-3 12,-4 24,-1 2,0 4,1 7,1 -1,-5 -2,-13 -3,-17 0,-4 3,-16 2,-17 -1,-1 -4,-2 -5,-3 -2,0 -4,-1 -6,-2 -2,-1 -3,-2 -5,0 -3,1 -4,0 -4,3l3 -1 -1 16c-3,1 -4,1 -7,1 -2,1 -4,0 -5,3z"/>
   <path class="fil1" d="M21 4c7,-2 9,10 2,11 -8,1 -10,-10 -2,-11zm1 25c0,0 0,0 0,0l6 -12c1,-1 1,-2 2,-3 4,-7 -2,-14 -8,-14 -7,0 -12,7 -8,14 1,3 7,13 8,15z"/>
  </g>
  <g id="_775075984">
   <path class="fil2" d="M1 74l0 7c1,1 1,11 11,17 7,5 15,6 24,2 2,0 3,-1 4,-2 3,-2 6,-5 8,-8 1,-3 -2,-6 -5,-2 -3,5 -9,9 -16,10 -17,0 -28,-19 -17,-33 7,-9 21,-11 30,-2 2,2 5,6 6,10 -1,0 -7,-1 -4,2 8,9 6,8 10,4 1,-2 2,-3 3,-4l0 -2c-2,0 -3,0 -4,0 -1,-3 -1,-5 -4,-9 -5,-7 -12,-12 -22,-12 -7,0 -12,4 -16,7 -7,6 -7,13 -8,15z"/>
   <path class="fil1" d="M27 79c-4,0 -3,-3 -2,-3 2,-1 4,1 2,3zm-2 -21c-2,1 -1,2 -1,4 0,2 0,4 0,6 0,1 0,4 0,5 0,2 -2,2 -2,5 0,1 1,3 2,3 3,1 3,-1 5,1 1,0 6,3 7,4 2,0 3,-1 3,-3 0,-1 -4,-3 -6,-4 -4,-2 -3,-1 -3,-3 -1,-2 -2,0 -2,-4l0 -11c0,-2 -1,-3 -3,-3z"/>
   <path class="fil3" d="M27 79c2,-2 0,-4 -2,-3 -1,0 -2,3 2,3z"/>
  </g>
  <g id="_775378320">
   <path class="fil4" d="M11 254l0 -34c0,-1 1,-2 2,-2l25 0c0,0 1,1 1,2l0 34c0,1 -1,2 -1,2l-25 0c-1,0 -2,-1 -2,-2zm-3 -35l0 36c0,2 2,4 4,4l26 0c2,0 4,-2 4,-5l0 -35c0,-1 0,-2 -1,-3 -1,-1 -2,-1 -4,-1l-24 0c-2,0 -3,0 -3,1 -1,0 -2,2 -2,3z"/>
   <path class="fil4" d="M14 211c0,0 1,1 1,1 1,0 6,0 7,0 3,0 6,0 9,0 2,0 7,0 9,0 2,1 4,3 5,5 0,2 0,16 0,18 0,2 0,15 0,16 1,2 3,1 3,0l0 -33c0,-1 -1,-3 -2,-5 0,0 0,-1 -1,-1 -2,-2 -4,-3 -6,-3l-23 0c-1,0 -2,1 -2,2z"/>
   <path class="fil4" d="M14 234c0,1 0,2 2,2l19 0c2,0 1,-3 0,-3l-20 0c0,0 -1,1 -1,1z"/>
   <path class="fil4" d="M14 239c0,0 0,1 2,1l19 0c1,0 2,-2 0,-2l-19 0c-1,0 -2,0 -2,1z"/>
   <path class="fil4" d="M14 230c0,0 0,1 1,1l20 0c1,0 1,-2 0,-2l-20 0c0,0 -1,0 -1,1z"/>
   <path class="fil4" d="M14 243c0,1 0,2 1,2l20 0c1,0 1,-3 0,-3l-19 0c-1,0 -2,1 -2,1z"/>
   <path class="fil4" d="M14 226c0,0 0,1 1,1l20 0c1,0 2,-3 0,-3l-20 0c0,0 -1,1 -1,2z"/>
   <path class="fil4" d="M14 248c0,0 0,1 1,1l20 0c2,0 1,-2 0,-2l-20 0c0,0 -1,0 -1,1z"/>
  </g>
  <g id="_775371952">
   <path class="fil5" d="M6 200l0 -30c0,-3 2,-2 3,-2l0 31c0,2 3,2 3,0l0 -35c0,-2 0,-4 2,-4l34 0c1,0 2,0 2,2l0 38c0,2 -1,4 -4,4l-36 0c-3,0 -4,-2 -4,-4zm3 -39l0 4c-1,0 -2,-1 -3,0 -2,1 -3,2 -3,4l0 32c0,3 3,6 6,6l38 0c3,0 6,-3 6,-6l0 -40c0,-1 -1,-3 -3,-4 0,0 -1,0 -1,0l-35 0c-1,0 -2,0 -2,0 -2,1 -3,3 -3,4z"/>
   <path class="fil5" d="M19 166l7 0 0 8 -7 0 0 -8zm-3 -2l0 12c0,0 0,1 1,1l11 0c1,0 2,-1 2,-1l0 -12c0,0 -1,-1 -2,-1l-11 0c-1,0 -1,1 -1,1z"/>
   <path class="fil5" d="M16 186c0,0 0,0 0,0l30 0c1,0 1,-1 0,-1l-30 0c0,0 0,0 0,1z"/>
   <path class="fil5" d="M16 181c0,0 0,1 0,1l30 0c1,0 1,-2 0,-2l-30 0c0,0 0,0 0,1z"/>
   <path class="fil5" d="M33 176c0,1 0,1 0,1l13 0c1,0 1,-2 0,-2l-12 0c-1,0 -1,1 -1,1z"/>
   <path class="fil5" d="M33 190c0,1 0,1 0,1l13 0c1,0 1,-1 0,-1l-12 0c-1,0 -1,0 -1,0z"/>
   <path class="fil5" d="M16 190c0,1 0,1 0,1l13 0c1,0 1,-1 0,-1l-13 0c0,0 0,0 0,0z"/>
   <path class="fil5" d="M33 195c0,1 0,1 0,1l13 0c1,0 1,-2 0,-2l-12 0c-1,0 -1,1 -1,1z"/>
   <path class="fil5" d="M33 172c0,0 0,0 0,0l13 0c1,0 1,-1 0,-1l-12 0c-1,0 -1,0 -1,1z"/>
   <path class="fil5" d="M33 167c0,0 0,1 0,1l13 0c1,0 1,-2 0,-2l-12 0c-1,0 -1,0 -1,1z"/>
   <path class="fil5" d="M33 200c0,0 0,0 0,0l13 0c1,0 1,-1 0,-1l-12 0c-1,0 -1,0 -1,1z"/>
   <path class="fil5" d="M16 195c0,1 0,1 0,1l13 0c1,0 1,-2 0,-2l-13 0c0,0 0,1 0,1z"/>
   <path class="fil5" d="M16 200c0,0 0,0 0,0l13 0c1,0 1,-1 0,-1l-13 0c0,0 0,0 0,1z"/>
  </g>
  <g id="_618255808">
   <path class="fil6" d="M22 128c-8,0 -11,-9 -7,-15 0,0 0,0 0,0l1 -1c6,-6 15,0 15,6 0,6 -4,10 -9,10zm-14 -10c0,5 1,9 5,12 0,0 0,0 0,0 0,0 0,0 1,1 8,5 17,1 21,-6 7,-16 -16,-29 -26,-13 0,2 -1,3 -1,6z"/>
   <path class="fil6" d="M29 135c0,4 5,9 8,14 2,2 3,5 5,5 3,1 10,-1 4,-10 -1,-1 -2,-3 -3,-4 -3,-4 -7,-12 -12,-8 -1,0 -2,2 -2,3z"/>
  </g>
  <path class="fil7 str0" d="M26 282c7,0 6,0 6,7 3,0 3,0 6,0 0,1 0,1 1,2 0,0 0,4 -1,5 -3,1 -3,1 -6,1 0,7 1,6 -6,6 -2,0 -1,-3 -1,-5 0,-2 -1,-1 -6,-1 -2,-3 -1,-1 -1,-6 0,-1 0,-1 1,-2 1,0 3,0 4,0 3,0 1,-3 2,-5 0,-1 0,-2 1,-2zm-24 6c0,4 4,4 6,4l0 13c0,3 1,6 4,6l32 0c2,0 4,-2 4,-4l0 -15c6,0 6,-2 6,-5 0,-2 -7,-8 -9,-10 -1,-1 -2,-2 -3,-4 -15,-14 -13,-15 -21,-6l-13 13c-1,1 -2,2 -3,4 -1,1 -3,2 -3,4z"/>
 </g>
</svg>
