<?xml version="1.0" encoding="UTF-8"?>
<!DOCTYPE svg PUBLIC "-//W3C//DTD SVG 1.1//EN" "http://www.w3.org/Graphics/SVG/1.1/DTD/svg11.dtd">
<!-- Creator: CorelDRAW X7 -->
<svg xmlns="http://www.w3.org/2000/svg" xml:space="preserve" width="544mm" height="234mm" version="1.1" style="shape-rendering:geometricPrecision; text-rendering:geometricPrecision; image-rendering:optimizeQuality; fill-rule:evenodd; clip-rule:evenodd"
viewBox="0 0 54400 23400"
 xmlns:xlink="http://www.w3.org/1999/xlink">
 <defs>
  <style type="text/css">
   <![CDATA[
    .str0 {stroke:#009846;stroke-width:7.62}
    .fil0 {fill:none;fill-rule:nonzero}
    .fil3 {fill:#A8D4AF}
    .fil4 {fill:#A8D4AF}
    .fil2 {fill:#2B2A29;fill-rule:nonzero}
    .fil1 {fill:#009846;fill-rule:nonzero}
   ]]>
  </style>
 </defs>
 <g id="Слой_x0020_1">
  <metadata id="CorelCorpID_0Corel-Layer"/>
  <polygon class="fil0" points="5,2 54313,2 54313,23341 5,23341 "/>
  <path class="fil1" d="M3954 18762l0 -166c132,0 225,-51 278,-152 53,-102 80,-272 80,-510l0 -1359 -179 -172c-102,119 -203,262 -305,430 -84,137 -165,284 -242,441 -77,157 -153,341 -229,553 -88,252 -132,433 -132,544 0,84 29,142 86,176 58,33 130,49 219,49l0 166 -2260 0 0 -166c146,0 263,-51 351,-152 62,-71 124,-192 186,-365 194,-561 386,-1018 576,-1372 239,-446 533,-846 882,-1199l-338 -292c-208,-176 -400,-313 -577,-411 -221,-123 -444,-203 -669,-238l0 -166 1902 0 0 166c-75,0 -143,22 -202,66 -60,44 -90,104 -90,179 0,71 55,175 166,312 40,53 126,148 258,285l597 616 0 -762c0,-248 -27,-426 -80,-534 -53,-108 -146,-162 -278,-162l0 -166 2074 0 0 166c-132,0 -225,55 -278,166 -53,110 -80,287 -80,530l0 762 597 -616c124,-133 207,-226 252,-279 115,-141 172,-247 172,-318 0,-75 -30,-135 -89,-179 -60,-44 -128,-66 -203,-66l0 -166 1902 0 0 166c-216,31 -437,110 -662,238 -181,102 -376,239 -584,411l-338 292c336,340 628,740 875,1199 199,372 393,829 583,1372 62,168 122,287 179,358 89,106 208,159 358,159l0 166 -2260 0 0 -166c89,0 157,-13 206,-40 66,-39 99,-101 99,-185 0,-119 -38,-287 -116,-504 -77,-216 -155,-406 -235,-570 -102,-203 -183,-358 -245,-464 -84,-141 -188,-285 -312,-430l-179 172 0 1359c0,238 26,408 77,510 50,101 144,152 281,152l0 166 -2074 0zm5340 0l0 -166c137,0 232,-49 285,-149 53,-99 79,-271 79,-513l0 -2704c0,-235 -26,-404 -79,-507 -53,-104 -148,-156 -285,-156l0 -166 3008 0 140 0c106,0 191,-5 255,-17 64,-13 118,-44 162,-95l338 1537 -146 40c-93,-318 -269,-569 -530,-752 -261,-184 -559,-275 -895,-275 -265,0 -437,46 -516,139 -62,70 -93,221 -93,450l0 186 0 212 212 0 165 0c239,0 403,-24 491,-73 141,-75 212,-230 212,-464l133 -20 291 1684 -132 13c-40,-102 -86,-191 -136,-268 -51,-78 -114,-152 -189,-222 -97,-89 -201,-146 -312,-173 -110,-26 -245,-40 -404,-40l-152 0 -179 0 0 1279c0,314 51,526 152,637 89,97 252,145 491,145 402,0 753,-114 1053,-344 274,-208 504,-504 690,-888l139 53 -564 1716c-44,-45 -97,-74 -159,-84 -62,-10 -141,-15 -238,-15l-3287 0zm5823 -3479l0 2617c0,248 29,426 86,534 58,108 162,162 312,162l0 166 -1326 0 0 -166c137,0 232,-49 285,-149 53,-99 80,-271 80,-513l0 -2704c0,-235 -27,-404 -80,-507 -53,-104 -148,-156 -285,-156l0 -166 2247 0 0 166c-44,13 -81,32 -109,56 -29,24 -43,59 -43,103 0,31 4,61 13,89 9,29 20,63 33,103l65 166 389 888 474 -941c42,-89 66,-137 70,-146 28,-71 42,-124 42,-159 0,-80 -37,-133 -112,-159l0 -166 2101 0 0 166c-137,0 -232,50 -285,149 -53,99 -80,271 -80,514l0 2704c0,234 27,403 80,506 53,104 148,156 285,156l0 166 -2101 0 0 -166c137,0 234,-51 291,-152 58,-102 86,-272 86,-510l0 -2651 -1272 2611 -1246 -2611zm5260 629l0 -682c0,-235 -26,-404 -79,-507 -53,-104 -148,-156 -285,-156l0 -166 2114 0 0 166c-150,0 -253,50 -308,149 -55,99 -83,271 -83,514l0 669c0,141 45,253 136,335 90,81 211,122 361,122 133,0 256,-20 371,-59 115,-40 223,-91 325,-153l0 -914c0,-243 -27,-415 -80,-514 -53,-99 -157,-149 -311,-149l0 -166 2114 0 0 166c-137,0 -232,50 -285,149 -53,99 -80,271 -80,514l0 2704c0,234 27,403 80,506 53,104 148,156 285,156l0 166 -2114 0 0 -166c146,0 247,-53 305,-159 57,-106 86,-285 86,-537l0 -1318c-212,119 -398,205 -557,258 -238,80 -506,119 -802,119 -340,0 -624,-95 -851,-285 -228,-190 -342,-444 -342,-762zm7401 1764l-1677 -2341c-75,-111 -145,-208 -212,-292 -92,-119 -172,-211 -238,-277 -102,-102 -223,-168 -365,-199l-20 -166 2413 0 26 166c-75,0 -141,21 -199,63 -57,42 -86,100 -86,175 0,89 51,210 153,365 44,66 90,132 139,199l676 987 338 -735c48,-115 98,-254 149,-418 51,-163 76,-296 76,-398 0,-79 -26,-139 -79,-178 -53,-40 -122,-60 -206,-60l-20 -166 1498 0 20 166c-177,22 -334,115 -471,277 -61,75 -122,171 -182,288 -60,117 -118,245 -176,380l-974 2119c-168,383 -349,675 -543,872 -230,239 -491,358 -782,358 -217,0 -422,-44 -616,-132 -151,-67 -296,-164 -438,-292l424 -1431 139 53c-17,119 -26,240 -26,364 0,287 51,511 152,670 102,159 239,238 411,238 115,0 232,-53 352,-159 136,-119 251,-284 344,-496zm5194 1086l0 -166c133,0 225,-51 278,-152 53,-102 80,-272 80,-510l0 -1359 -179 -172c-102,119 -203,262 -305,430 -84,137 -164,284 -242,441 -77,157 -153,341 -228,553 -89,252 -133,433 -133,544 0,84 29,142 86,176 58,33 131,49 219,49l0 166 -2260 0 0 -166c146,0 263,-51 351,-152 62,-71 124,-192 186,-365 194,-561 386,-1018 576,-1372 239,-446 533,-846 882,-1199l-338 -292c-208,-176 -400,-313 -577,-411 -221,-123 -444,-203 -669,-238l0 -166 1902 0 0 166c-75,0 -143,22 -202,66 -60,44 -90,104 -90,179 0,71 56,175 166,312 40,53 126,148 258,285l597 616 0 -762c0,-248 -27,-426 -80,-534 -53,-108 -145,-162 -278,-162l0 -166 2074 0 0 166c-132,0 -225,55 -278,166 -53,110 -80,287 -80,530l0 762 597 -616c124,-133 208,-226 252,-279 115,-141 172,-247 172,-318 0,-75 -30,-135 -89,-179 -60,-44 -127,-66 -203,-66l0 -166 1902 0 0 166c-216,31 -437,110 -662,238 -181,102 -376,239 -583,411l-338 292c335,340 627,740 874,1199 199,372 394,829 584,1372 61,168 121,287 178,358 89,106 208,159 358,159l0 166 -2260 0 0 -166c89,0 157,-13 206,-40 66,-39 99,-101 99,-185 0,-119 -38,-287 -116,-504 -77,-216 -155,-406 -235,-570 -101,-203 -183,-358 -245,-464 -84,-141 -188,-285 -312,-430l-179 172 0 1359c0,238 26,408 77,510 51,101 144,152 281,152l0 166 -2074 0zm7063 -862c0,252 27,431 83,537 55,106 158,159 308,159l0 166 -2114 0 0 -166c137,0 232,-49 285,-149 53,-99 79,-271 79,-513l0 -2704c0,-235 -26,-404 -79,-507 -53,-104 -148,-156 -285,-156l0 -166 2114 0 0 166c-137,0 -237,51 -298,152 -62,102 -93,272 -93,511l0 1259 1319 -1259c0,-230 -31,-398 -93,-504 -62,-106 -161,-159 -298,-159l0 -166 2114 0 0 166c-137,0 -232,50 -285,149 -53,99 -80,271 -80,514l0 2704c0,234 27,403 80,506 53,104 148,156 285,156l0 166 -2114 0 0 -166c145,0 247,-53 304,-159 58,-106 87,-285 87,-537l0 -2047 -1319 1259 0 788zm5558 0c0,252 28,431 83,537 55,106 158,159 308,159l0 166 -2114 0 0 -166c137,0 232,-49 285,-149 53,-99 80,-271 80,-513l0 -2691c0,-451 -122,-676 -365,-676l0 -166 2114 0 0 166c-137,0 -236,51 -298,152 -62,102 -93,272 -93,511l0 357 1319 0 0 -357c0,-230 -31,-398 -93,-504 -62,-106 -161,-159 -298,-159l0 -166 2114 0 0 166c-137,0 -232,50 -285,149 -53,99 -79,271 -79,514l0 2704c0,234 26,403 79,506 53,104 148,156 285,156l0 166 -2114 0 0 -166c146,0 247,-53 305,-159 57,-106 86,-285 86,-537l0 -1875 -1319 0 0 1875zm5002 -132c-31,97 -60,195 -86,295 -27,99 -40,180 -40,242 0,92 27,162 80,208 53,47 128,74 225,83l0 166 -1458 0 0 -166c159,-35 291,-132 398,-291 57,-84 132,-239 225,-464l1040 -2751c22,-48 47,-110 73,-185 27,-75 40,-133 40,-172 0,-98 -49,-153 -146,-166l0 -166 1935 0 0 166c-53,9 -91,24 -116,46 -24,22 -36,62 -36,120 0,26 55,207 166,543 203,623 333,1016 391,1180 159,464 318,927 477,1391 93,265 152,420 179,464 92,173 216,268 371,285l0 166 -2287 0 0 -166c106,0 194,-36 262,-109 69,-73 103,-165 103,-275 0,-150 -60,-307 -179,-471 -102,-137 -228,-257 -378,-361 -150,-104 -306,-178 -467,-222 -161,-44 -339,-66 -533,-66l-239 676zm861 -2485l-417 1246c155,0 311,28 470,86 160,57 310,137 451,238l-504 -1570z"/>
  <path class="fil2" d="M3394 21900l-515 91c-17,-102 -56,-179 -118,-231 -61,-51 -141,-78 -239,-78 -130,0 -234,46 -312,136 -77,90 -116,241 -116,452 0,235 39,401 118,498 79,97 184,146 317,146 99,0 180,-29 243,-85 64,-57 108,-154 134,-293l515 88c-54,236 -156,415 -307,536 -151,120 -354,181 -609,181 -288,0 -519,-92 -690,-274 -173,-183 -258,-436 -258,-759 0,-328 86,-582 258,-764 172,-182 406,-273 700,-273 240,0 431,52 573,155 142,104 244,262 306,474z"/>
  <polygon id="1" class="fil2" points="3555,21313 5342,21313 5342,21736 4710,21736 4710,23291 4187,23291 4187,21736 3555,21736 "/>
  <path id="2" class="fil2" d="M5485 22278c0,-174 43,-343 129,-505 86,-164 207,-287 364,-373 157,-86 331,-129 525,-129 299,0 544,97 735,291 192,195 287,441 287,738 0,300 -97,548 -289,745 -193,197 -436,296 -729,296 -181,0 -354,-42 -518,-124 -164,-82 -289,-202 -375,-360 -86,-159 -129,-352 -129,-579zm538 28c0,196 46,347 139,451 93,105 208,157 344,157 136,0 251,-52 343,-157 92,-104 138,-256 138,-455 0,-194 -46,-343 -138,-447 -92,-105 -207,-157 -343,-157 -136,0 -251,52 -344,157 -93,104 -139,254 -139,451z"/>
  <polygon id="3" class="fil2" points="7901,21313 8553,21313 9039,22691 9533,21313 10180,21313 10180,23291 9734,23291 9734,21989 9255,23291 8806,23291 8347,21989 8347,23291 7901,23291 "/>
  <path id="4" class="fil2" d="M11044 21923l-473 -84c54,-193 146,-336 276,-429 130,-93 324,-139 581,-139 233,0 407,27 521,82 114,56 195,126 241,211 46,85 70,240 70,468l-8 610c0,173 9,302 25,384 17,83 48,171 93,265l-518 0c-13,-34 -30,-85 -50,-152 -8,-32 -15,-52 -19,-61 -89,87 -184,153 -285,197 -102,43 -210,66 -325,66 -203,0 -363,-56 -480,-166 -117,-110 -175,-250 -175,-419 0,-111 27,-211 80,-298 53,-87 128,-155 224,-201 96,-47 235,-87 416,-122 244,-46 413,-89 507,-129l0 -52c0,-102 -24,-174 -74,-218 -50,-43 -144,-65 -282,-65 -94,0 -166,18 -218,56 -53,37 -95,102 -127,196zm701 423c-66,22 -173,49 -318,80 -145,31 -240,61 -285,91 -68,49 -102,110 -102,184 0,74 27,136 82,190 55,53 124,80 208,80 94,0 185,-31 270,-93 63,-48 105,-105 125,-173 13,-45 20,-130 20,-255l0 -104z"/>
  <polygon id="5" class="fil2" points="12539,21313 14327,21313 14327,21736 13694,21736 13694,23291 13172,23291 13172,21736 12539,21736 "/>
  <path id="6" class="fil2" d="M14470 22278c0,-174 42,-343 128,-505 86,-164 207,-287 364,-373 157,-86 332,-129 525,-129 300,0 544,97 735,291 192,195 287,441 287,738 0,300 -97,548 -289,745 -193,197 -436,296 -729,296 -181,0 -354,-42 -518,-124 -164,-82 -289,-202 -375,-360 -86,-159 -128,-352 -128,-579zm537 28c0,196 46,347 139,451 94,105 208,157 345,157 135,0 250,-52 342,-157 92,-104 138,-256 138,-455 0,-194 -46,-343 -138,-447 -92,-105 -207,-157 -342,-157 -137,0 -251,52 -345,157 -93,104 -139,254 -139,451z"/>
  <path id="7" class="fil2" d="M16966 21313l1750 0 0 1978 -522 0 0 -1555 -709 0 0 890c0,226 -26,385 -78,476 -53,92 -111,152 -174,180 -63,29 -166,43 -306,43 -83,0 -194,-11 -330,-33l0 -384c11,0 40,1 87,4 55,4 97,6 127,6 72,0 115,-24 131,-70 16,-47 24,-177 24,-390l0 -1145z"/>
  <path id="8" class="fil2" d="M19075 22278c0,-174 43,-343 128,-505 86,-164 207,-287 364,-373 157,-86 332,-129 526,-129 299,0 544,97 735,291 191,195 286,441 286,738 0,300 -96,548 -289,745 -193,197 -436,296 -728,296 -181,0 -354,-42 -519,-124 -164,-82 -289,-202 -375,-360 -85,-159 -128,-352 -128,-579zm537 28c0,196 47,347 140,451 93,105 207,157 344,157 136,0 250,-52 342,-157 93,-104 139,-256 139,-455 0,-194 -46,-343 -139,-447 -92,-105 -206,-157 -342,-157 -137,0 -251,52 -344,157 -93,104 -140,254 -140,451z"/>
  <polygon id="9" class="fil2" points="21503,21313 22841,21313 22841,21736 22025,21736 22025,23291 21503,23291 "/>
  <polygon id="10" class="fil2" points="23098,21313 23601,21313 23601,22556 24405,21313 24920,21313 24920,23291 24417,23291 24417,22030 23601,23291 23098,23291 "/>
  <path id="11" class="fil2" d="M25395 21313l530 0 0 473c0,108 10,188 29,241 19,53 60,98 123,136 62,38 142,57 237,57 93,0 197,-21 312,-64l0 -843 523 0 0 1978 -523 0 0 -791c-203,55 -359,82 -465,82 -160,0 -305,-34 -432,-103 -128,-69 -216,-157 -263,-265 -47,-107 -71,-250 -71,-429l0 -472z"/>
  <path id="12" class="fil2" d="M28813 22666l522 88c-67,191 -173,336 -317,437 -145,99 -326,150 -543,150 -343,0 -598,-113 -763,-338 -130,-180 -195,-408 -195,-683 0,-328 85,-585 256,-770 171,-186 388,-279 650,-279 293,0 525,97 695,291 170,195 251,493 244,894l-1308 0c4,155 46,276 126,362 81,87 181,130 300,130 82,0 151,-22 206,-67 56,-44 98,-116 127,-215zm30 -530c-4,-152 -42,-267 -117,-346 -74,-80 -164,-119 -271,-119 -114,0 -208,42 -282,125 -75,83 -111,197 -109,340l779 0z"/>
  <path id="13" class="fil2" d="M31462 21900l-515 91c-17,-102 -56,-179 -118,-231 -62,-51 -141,-78 -239,-78 -130,0 -234,46 -312,136 -77,90 -116,241 -116,452 0,235 39,401 118,498 79,97 184,146 317,146 99,0 180,-29 243,-85 63,-57 108,-154 134,-293l515 88c-54,236 -156,415 -307,536 -151,120 -354,181 -609,181 -288,0 -519,-92 -691,-274 -172,-183 -257,-436 -257,-759 0,-328 86,-582 258,-764 172,-182 405,-273 700,-273 240,0 431,52 573,155 142,104 244,262 306,474z"/>
  <path id="14" class="fil2" d="M31836 21313l522 0 0 808c87,-10 149,-37 185,-80 36,-43 80,-138 130,-284 68,-195 141,-319 221,-374 79,-54 184,-82 313,-82 40,0 109,3 207,10l2 345c-138,0 -227,12 -265,39 -39,27 -80,108 -125,243 -61,182 -149,295 -264,337 166,45 305,190 420,432 5,12 12,25 20,39l292 545 -562 0 -260 -574c-54,-115 -100,-190 -140,-223 -38,-33 -97,-49 -174,-49l0 846 -522 0 0 -1978z"/>
  <path id="15" class="fil2" d="M34156 21923l-473 -84c53,-193 145,-336 276,-429 130,-93 324,-139 580,-139 234,0 408,27 522,82 114,56 194,126 241,211 46,85 70,240 70,468l-8 610c0,173 8,302 25,384 16,83 47,171 93,265l-518 0c-14,-34 -31,-85 -50,-152 -9,-32 -15,-52 -19,-61 -89,87 -184,153 -286,197 -101,43 -209,66 -324,66 -203,0 -363,-56 -480,-166 -117,-110 -175,-250 -175,-419 0,-111 26,-211 80,-298 53,-87 127,-155 224,-201 96,-47 234,-87 415,-122 244,-46 414,-89 508,-129l0 -52c0,-102 -25,-174 -74,-218 -50,-43 -144,-65 -282,-65 -94,0 -166,18 -218,56 -53,37 -95,102 -127,196zm701 423c-67,22 -173,49 -318,80 -145,31 -240,61 -285,91 -68,49 -102,110 -102,184 0,74 27,136 82,190 54,53 124,80 208,80 94,0 184,-31 270,-93 63,-48 105,-105 125,-173 13,-45 20,-130 20,-255l0 -104z"/>
  <path id="16" class="fil2" d="M37583 21313l0 1978 -522 0 0 -819 -48 0c-113,0 -197,14 -249,43 -54,30 -112,91 -177,185l-32 39 -345 552 -609 0 375 -572c107,-164 203,-258 290,-283 -147,-9 -265,-64 -357,-167 -91,-102 -136,-233 -136,-393 0,-128 30,-237 90,-328 61,-91 141,-153 241,-186 100,-33 249,-49 447,-49l1032 0zm-522 335l-375 0c-139,0 -236,20 -292,59 -56,40 -84,104 -84,195 0,92 32,157 95,197 64,40 168,60 312,60l344 0 0 -511z"/>
  <path id="17" class="fil2" d="M39147 21313l523 0 0 808c87,-10 148,-37 185,-80 35,-43 79,-138 130,-284 67,-195 140,-319 220,-374 80,-54 184,-82 313,-82 40,0 109,3 208,10l1 345c-138,0 -226,12 -264,39 -39,27 -81,108 -126,243 -61,182 -149,295 -263,337 165,45 305,190 419,432 6,12 13,25 20,39l293 545 -563 0 -260 -574c-54,-115 -100,-190 -139,-223 -39,-33 -97,-49 -174,-49l0 846 -523 0 0 -1978z"/>
  <path id="18" class="fil2" d="M41266 21313l1749 0 0 1978 -522 0 0 -1555 -709 0 0 890c0,226 -26,385 -78,476 -53,92 -111,152 -174,180 -63,29 -165,43 -306,43 -83,0 -194,-11 -330,-33l0 -384c11,0 40,1 87,4 55,4 98,6 128,6 71,0 114,-24 130,-70 16,-47 25,-177 25,-390l0 -1145z"/>
  <polygon id="19" class="fil2" points="43531,21313 44034,21313 44034,22556 44839,21313 45353,21313 45353,23291 44850,23291 44850,22030 44034,23291 43531,23291 "/>
  <polygon id="20" class="fil2" points="45867,21313 46389,21313 46389,22037 47144,22037 47144,21313 47666,21313 47666,23291 47144,23291 47144,22460 46389,22460 46389,23291 45867,23291 "/>
  <polygon id="21" class="fil2" points="48177,21313 48680,21313 48680,22556 49484,21313 49999,21313 49999,23291 49496,23291 49496,22030 48680,23291 48177,23291 "/>
  <path id="22" class="fil2" d="M50512 21313l522 0 0 808c87,-10 149,-37 185,-80 36,-43 80,-138 130,-284 68,-195 141,-319 221,-374 79,-54 183,-82 313,-82 40,0 109,3 207,10l2 345c-138,0 -227,12 -265,39 -39,27 -81,108 -125,243 -61,182 -149,295 -264,337 166,45 305,190 420,432 5,12 12,25 20,39l292 545 -562 0 -260 -574c-54,-115 -100,-190 -140,-223 -38,-33 -97,-49 -174,-49l0 846 -522 0 0 -1978z"/>
  <path id="23" class="fil2" d="M52832 21923l-473 -84c53,-193 145,-336 276,-429 130,-93 324,-139 580,-139 234,0 408,27 522,82 114,56 194,126 241,211 46,85 70,240 70,468l-8 610c0,173 8,302 25,384 16,83 47,171 93,265l-518 0c-14,-34 -31,-85 -50,-152 -9,-32 -15,-52 -19,-61 -89,87 -184,153 -286,197 -101,43 -209,66 -324,66 -203,0 -363,-56 -480,-166 -117,-110 -175,-250 -175,-419 0,-111 26,-211 80,-298 53,-87 127,-155 224,-201 96,-47 234,-87 415,-122 244,-46 414,-89 508,-129l0 -52c0,-102 -25,-174 -74,-218 -51,-43 -145,-65 -282,-65 -94,0 -166,18 -218,56 -53,37 -95,102 -127,196zm701 423c-67,22 -173,49 -318,80 -145,31 -240,61 -285,91 -68,49 -102,110 -102,184 0,74 27,136 82,190 54,53 124,80 208,80 94,0 184,-31 270,-93 63,-48 105,-105 125,-173 13,-45 20,-130 20,-255l0 -104z"/>
  <path class="fil3 str0" d="M27011 9024c-27,-116 -53,-234 -80,-350 -156,174 -277,370 -363,577 38,107 88,254 147,429 -3,-416 114,-595 296,-656zm-85 -373l-58 -258c-70,56 -138,117 -203,182 -90,90 -172,186 -245,285 29,75 58,150 87,226 100,-141 219,-270 358,-386 20,-16 41,-33 61,-49zm-200 -881c-56,-240 -104,-431 -137,-537 -336,-1081 -656,-2181 -923,-3292 -111,-463 -1246,69 -914,913 444,1128 947,2230 1415,3373 23,-26 48,-51 73,-77 149,-149 313,-276 486,-380zm549 3586c49,145 98,290 145,430 164,96 340,168 521,214 -22,-326 -50,-698 -82,-1101 -293,255 -300,712 -467,580 -36,-28 -76,-70 -117,-123zm289 852c27,80 54,157 79,231 110,19 219,29 328,32 -3,-58 -7,-119 -11,-183 -134,-13 -267,-40 -396,-80zm94 272c157,451 280,781 325,845 23,-28 18,-308 -7,-758 -106,-21 -213,-50 -318,-87l0 0zm47 -3398c-32,-365 -66,-734 -101,-1102 -196,70 -386,166 -564,286 56,255 110,501 158,733 153,1 328,42 507,83zm-151 -1629c-190,-1977 -388,-3774 -475,-4122 -112,-444 -1291,-3 -1100,616 103,337 551,2097 926,3725 207,-103 426,-176 649,-219zm657 5854c5,-6 103,-276 253,-695 -85,1 -171,-2 -257,-11 -24,400 -29,687 4,706zm323 -889c19,-54 39,-109 59,-165 -121,26 -244,41 -367,45 -4,57 -7,113 -11,167 108,-9 215,-24 319,-47zm131 -366c33,-92 67,-187 102,-285 -129,3 -144,-888 -413,-1013 -35,395 -77,868 -110,1300 140,13 281,13 421,-2zm943 -2645c96,-267 185,-520 265,-745 -156,-196 -344,-369 -560,-510 -83,306 -161,602 -229,882 303,-48 497,-17 524,373zm336 -944l42 -119c-196,-148 -409,-264 -631,-348 -8,32 -17,63 -26,95 228,94 434,220 615,372zm46 -133c99,-277 172,-485 207,-586 364,-1055 910,-2035 1330,-3069 201,-496 -854,-1343 -1041,-621 -229,889 -695,2379 -1079,3757 149,96 290,209 420,339 58,58 112,118 163,180zm-997 720c73,-338 156,-709 246,-1095 -207,-67 -421,-106 -636,-118 -45,433 -86,868 -121,1303 189,-23 361,-62 511,-90zm296 -1311c415,-1772 921,-3744 961,-3930 87,-407 -1086,-1169 -1185,-151 -125,1280 -288,2550 -425,3823 225,55 443,141 649,258zm-941 5456c110,-201 223,-399 338,-596 -68,7 -137,12 -205,13 -111,332 -164,544 -133,583zm499 -869c38,-64 77,-127 115,-191 -115,50 -234,88 -354,115 -21,57 -41,111 -59,164 101,-23 201,-52 298,-88zm219 -359c410,-662 848,-1304 1315,-1925 -7,-204 -41,-404 -99,-596 -284,440 -560,890 -815,1366 -21,40 -89,188 -125,194 -10,-23 -9,-60 2,-109 -147,417 -341,762 -553,862 -39,101 -75,198 -110,291 130,-15 259,-42 385,-83zm1630 -2336c662,-843 1380,-1647 2162,-2411 55,-56 130,-103 176,-166 -200,-1234 -131,-1794 -1225,39 -417,697 -873,1357 -1319,2034 88,159 157,328 206,504zm-1299 1105c128,-316 442,-853 825,-1464 -62,-159 -141,-311 -236,-454 -130,309 -260,620 -387,928 -3,34 -7,69 -11,106 -34,281 -101,593 -191,884zm1007 -1752c931,-1463 2131,-3200 2131,-3372 -2,-231 -485,-1539 -1042,-295 -162,362 -771,1756 -1410,3272 121,120 229,253 321,395zm-3562 2024c-2,-1 -5,-6 -5,-5 -67,-76 -206,-288 -386,-578 64,322 206,633 430,904 118,141 250,263 393,364 -235,-596 -522,-1315 -822,-2060 -29,146 -42,295 -38,445 177,281 483,749 428,930zm-686 -1065c-47,-77 -96,-158 -145,-239 -42,153 -69,308 -81,465 72,96 142,189 208,280 -15,-169 -9,-339 18,-506zm-513 -849c-456,-757 -926,-1533 -1193,-1912 -1383,-1966 -1049,-1402 -1254,-250 -50,281 557,697 762,916 617,662 1129,1257 1557,1790 23,-184 65,-367 128,-544zm1555 2961c295,504 482,880 648,1148 -22,-89 -166,-472 -383,-1029 -91,-33 -180,-73 -265,-119zm-856 -2695c-31,-78 -63,-156 -95,-235 -68,121 -125,246 -172,374 50,82 94,155 130,218 35,-123 80,-242 137,-357zm-365 -901c-694,-1705 -1351,-3284 -1508,-3587 -242,-469 -789,505 -811,695 -10,91 1264,2078 2057,3348 70,-159 157,-312 262,-456zm2087 4126c0,117 16,343 53,437 3,-15 15,-170 35,-427 -30,-3 -59,-7 -88,-12l0 2zm97 -117c4,-53 8,-110 13,-170 -41,1 -82,0 -123,-3l8 177c34,-1 68,-2 102,-4zm32 -420c27,-366 60,-815 96,-1309 -2,0 -5,0 -7,0 -122,5 -221,34 -303,78 21,402 40,804 59,1205 51,11 103,19 155,26zm213 -2900c32,-439 64,-884 96,-1315 -237,-4 -474,25 -704,87 30,399 58,799 83,1199 115,23 229,39 336,38 64,0 127,-4 189,-9zm123 -1692c101,-1372 186,-2545 211,-2866 56,-708 507,-1864 -630,-1864 -1145,0 -742,1020 -636,1881 116,935 208,1875 285,2815 257,-27 517,-16 770,34zm-114 5800c22,0 345,-353 705,-747 -115,36 -233,62 -353,79 -88,153 -174,307 -256,462 -33,63 -99,154 -96,206zm2236 -2218c721,-544 1339,-874 2243,-1309 357,-171 1536,-2474 -2133,851 -21,153 -57,306 -110,458zm-507 114c-234,235 -447,526 -706,722 1,-9 3,-19 6,-30 -116,94 -239,174 -367,238 -43,68 -86,135 -128,203 509,-216 941,-609 1195,-1133zm-683 640c90,-235 408,-599 823,-999 49,-164 79,-328 91,-492 -427,527 -833,1069 -1199,1628 97,-38 193,-83 285,-137zm1321 -1457c806,-712 1759,-1432 2207,-1697 323,-192 599,-1902 -160,-1091 -686,734 -1403,1501 -2082,2305 28,158 40,320 35,483zm-4074 1492c-211,-264 -442,-517 -688,-760 59,207 145,407 257,597 884,828 1486,1596 1486,1596 -176,-359 -492,-860 -863,-1401 -108,-86 -210,-185 -302,-296 -161,-194 -279,-409 -357,-634 -105,-144 -211,-287 -315,-427 7,145 27,289 60,431 240,256 473,530 699,831 23,30 19,3 23,63zm-1102 -1147c-787,-701 -1680,-1318 -2506,-1883 -381,-260 -169,816 433,1027 835,293 1671,890 2376,1506 -134,-204 -235,-423 -303,-650zm-109 -744c-522,-679 -958,-1211 -1089,-1333 -426,-398 -812,-842 -1243,-1240 -423,-391 -259,1054 -12,1235 869,640 1671,1211 2407,1909 -42,-188 -63,-379 -63,-571zm2884 3537c1452,-3 2876,-3191 4877,-3653 38,-9 34,-4 43,-28 -392,-170 -1847,815 -2769,1526 -274,547 -742,949 -1289,1150 -420,416 -885,905 -862,1005zm-5491 -3681c26,100 819,381 946,450 1317,720 2801,3271 3974,3230 71,-382 -3181,-3227 -4703,-3642 -69,-12 -135,-70 -217,-38zm723 603c232,406 670,491 998,1445 395,1147 1647,1506 2027,1316 -50,-147 -2762,-3062 -3025,-2761zm5939 2764c535,195 1557,-305 1900,-983 295,-584 451,-1120 930,-1608 20,-18 181,-154 191,-174 -289,-171 -2934,2558 -3021,2765zm-2307 -10415c290,-107 859,-966 1613,-98 47,54 34,68 96,57 508,-1979 -2456,-1463 -1709,41zm3119 542c323,-149 371,-1302 -638,-1333 -399,-13 -467,211 -512,538 -91,666 274,148 824,499 182,116 238,242 326,296zm-4535 -1c275,-198 494,-548 935,-460 285,56 279,-59 209,-329 -91,-351 -77,-554 -506,-544 -337,8 -698,251 -859,546 -56,102 86,752 221,787zm-362 201c173,-344 -284,-1062 -920,-652 -959,618 -143,1443 -59,1281 227,-440 488,-640 979,-629zm5214 -42c481,278 453,-308 1051,744 204,1 801,-967 -288,-1445 -546,-239 -655,321 -763,701zm-7035 302c-473,83 -872,881 -569,1249 606,734 314,109 798,-342 305,-251 505,-3 147,-566 -85,-134 -184,-375 -376,-341zm8818 1c-225,66 -652,711 -324,801 790,217 195,1431 1048,346 236,-300 -310,-1268 -724,-1147zm-9878 3718c0,-638 408,-266 -243,-840 -561,-495 -532,1267 -145,1468 786,407 388,-15 388,-628zm11429 -953c-134,45 -680,454 -539,606 442,477 -557,1567 599,936 249,-135 343,-1675 -60,-1542zm-11397 -1541c-249,94 -356,1273 -237,1406 570,639 578,477 611,-253 25,-559 425,-394 168,-682 -136,-152 -332,-551 -542,-471zm10833 -1c-144,42 -382,412 -483,553 -87,121 164,289 208,417 175,505 -236,1206 535,527 199,-176 214,-1633 -260,-1497zm-204 4658c581,228 1419,-982 1051,-1369 -48,-51 -661,-10 -647,511 13,503 -404,857 -404,858zm-11410 -1141c0,812 841,1328 1113,1138 -698,-786 -46,-1016 -831,-1353 -197,-84 -282,-7 -282,215zm4300 4536c-5,-7 -770,-375 -1183,-929 -111,322 920,1092 1183,929zm3918 0c253,186 1298,-635 1182,-936 -385,631 -1182,936 -1182,936z"/>
  <polygon class="fil4" points="5051,2 5407,2430 7835,2786 5407,3142 5051,5570 4695,3142 2267,2786 4695,2430 "/>
  <polygon class="fil4" points="11576,6005 11809,7599 13403,7832 11809,8066 11576,9659 11342,8066 9749,7832 11342,7599 "/>
  <polygon class="fil4" points="16970,3656 17159,4946 18449,5135 17159,5324 16970,6614 16781,5324 15491,5135 16781,4946 "/>
  <polygon class="fil4" points="36371,10268 36560,11558 37850,11747 36560,11936 36371,13226 36182,11936 34892,11747 36182,11558 "/>
  <polygon class="fil4" points="1484,11486 1673,12776 2963,12965 1673,13154 1484,14444 1295,13154 5,12965 1295,12776 "/>
  <polygon class="fil4" points="36806,872 36917,1631 37676,1742 36917,1853 36806,2612 36695,1853 35936,1742 36695,1631 "/>
  <polygon class="fil4" points="40852,5222 41146,7233 43157,7528 41146,7822 40852,9833 40557,7822 38546,7528 40557,7233 "/>
  <polygon class="fil4" points="50987,7049 51398,9857 54206,10268 51398,10680 50987,13487 50576,10680 47768,10268 50576,9857 "/>
  <polygon class="fil4" points="51596,611 51785,1901 53075,2090 51785,2279 51596,3569 51407,2279 50117,2090 51407,1901 "/>
 </g>
</svg>
